<?xml version="1.0" encoding="UTF-8" standalone="no"?>
<!DOCTYPE svg PUBLIC "-//W3C//DTD SVG 1.1//EN" "http://www.w3.org/Graphics/SVG/1.1/DTD/svg11.dtd">
<svg width="100%" height="100%" viewBox="0 0 23 23" version="1.1" xmlns="http://www.w3.org/2000/svg" xmlns:xlink="http://www.w3.org/1999/xlink" xml:space="preserve" xmlns:serif="http://www.serif.com/" style="fill-rule:evenodd;clip-rule:evenodd;stroke-linejoin:round;stroke-miterlimit:2;">
    <g transform="matrix(1,0,0,1,-509.215,-207.836)">
        <g transform="matrix(0.359375,0,0,0.359375,520.715,219.336)">
            <g transform="matrix(1,0,0,1,-32,-32)">
                <clipPath id="_clip1">
                    <rect x="0" y="0" width="64" height="64"/>
                </clipPath>
                <g clip-path="url(#_clip1)">
                    <path d="M64,4C64,2.939 63.579,1.922 62.828,1.172C62.078,0.421 61.061,-0 60,-0L4,0C2.939,-0 1.922,0.421 1.172,1.172C0.421,1.922 -0,2.939 -0,4L0,60C-0,61.061 0.421,62.078 1.172,62.828C1.922,63.579 2.939,64 4,64L60,64C61.061,64 62.078,63.579 62.828,62.828C63.579,62.078 64,61.061 64,60L64,4ZM42.992,50C44.281,52.105 45.958,53.652 48.924,53.652C51.416,53.652 53.008,52.407 53.008,50.686C53.008,48.624 51.373,47.893 48.63,46.694L47.126,46.049C42.787,44.2 39.903,41.883 39.903,36.987C39.903,32.476 43.34,29.043 48.711,29.043C52.535,29.043 55.284,30.374 57.265,33.858L52.582,36.865C51.55,35.016 50.438,34.288 48.711,34.288C46.95,34.288 45.833,35.405 45.833,36.865C45.833,38.669 46.951,39.4 49.531,40.517L51.034,41.161C56.144,43.352 59.029,45.586 59.029,50.609C59.029,56.023 54.776,58.99 49.064,58.99C43.478,58.99 39.87,56.328 38.104,52.84L42.992,50ZM21.747,50.521C22.692,52.198 23.551,53.615 25.617,53.615C27.593,53.615 28.84,52.842 28.84,49.836L28.84,29.386L34.854,29.386L34.854,49.917C34.854,56.144 31.203,58.979 25.873,58.979C21.058,58.979 18.269,56.487 16.851,53.485L21.747,50.521Z" style="fill:rgb(247,223,30);"/>
                </g>
            </g>
        </g>
    </g>
</svg>
