<?xml version="1.0" encoding="UTF-8" standalone="no"?>
<!DOCTYPE svg PUBLIC "-//W3C//DTD SVG 1.1//EN" "http://www.w3.org/Graphics/SVG/1.1/DTD/svg11.dtd">
<svg width="100%" height="100%" viewBox="0 0 28 23" version="1.1" xmlns="http://www.w3.org/2000/svg" xmlns:xlink="http://www.w3.org/1999/xlink" xml:space="preserve" xmlns:serif="http://www.serif.com/" style="fill-rule:evenodd;clip-rule:evenodd;stroke-linejoin:round;stroke-miterlimit:2;">
    <g transform="matrix(1,0,0,1,-393.69,-207.836)">
        <g transform="matrix(0.244681,0,0,0.244681,407.392,219.336)">
            <g transform="matrix(1,0,0,1,-56,-47)">
                <g transform="matrix(0.180845,0,0,-0.178372,3.91667,74.954)">
                    <g>
                        <clipPath id="_clip1">
                            <path d="M11.52,162C11.52,81.677 135.307,16.56 288,16.56C440.693,16.56 564.48,81.677 564.48,162C564.48,242.323 440.693,307.44 288,307.44C135.307,307.44 11.52,242.322 11.52,162"/>
                        </clipPath>
                        <g clip-path="url(#_clip1)">
                            <path d="M11.52,162C11.52,81.677 135.307,16.56 288,16.56C440.693,16.56 564.48,81.677 564.48,162C564.48,242.323 440.693,307.44 288,307.44C135.307,307.44 11.52,242.322 11.52,162" style="fill:url(#_Radial2);fill-rule:nonzero;"/>
                        </g>
                    </g>
                    <g>
                        <path d="M288,27.36C434.73,27.36 553.68,87.64 553.68,162C553.68,236.36 434.73,296.64 288,296.64C141.27,296.64 22.32,236.36 22.32,162C22.32,87.64 141.27,27.36 288,27.36" style="fill:rgb(119,123,179);fill-rule:nonzero;"/>
                    </g>
                    <g>
                        <path d="M161.734,145.307C173.799,145.307 182.806,147.532 188.504,151.917C194.142,156.257 198.036,163.779 200.077,174.27C201.98,184.076 201.255,190.923 197.923,194.618C194.516,198.392 187.15,200.306 176.03,200.306L156.75,200.306L146.06,145.306L161.733,145.306L161.734,145.307ZM98.67,77.557C97.775,77.557 96.925,77.957 96.356,78.649C95.787,79.34 95.555,80.25 95.726,81.129L124.054,226.879C124.327,228.283 125.569,229.306 126.999,229.306L188.053,229.306C207.241,229.306 221.523,224.106 230.5,213.819C239.525,203.489 242.312,189.047 238.783,170.899C237.347,163.505 234.877,156.639 231.443,150.489C228.003,144.334 223.459,138.639 217.933,133.559C211.317,127.367 203.829,122.877 195.697,120.235C187.694,117.628 177.417,116.305 165.149,116.305L140.427,116.305L133.367,79.983C133.094,78.579 131.853,77.555 130.423,77.555L98.67,77.555L98.67,77.557Z" style="fill-rule:nonzero;"/>
                        <path d="M159.223,197.307L176.032,197.307C189.452,197.307 194.115,194.362 195.699,192.607C198.327,189.693 198.823,183.549 197.134,174.84C195.236,165.09 191.718,158.177 186.676,154.295C181.514,150.321 173.122,148.307 161.736,148.307L149.7,148.307L159.223,197.307ZM188.054,232.307L127,232.307C124.139,232.307 121.657,230.26 121.111,227.452L92.783,81.7C92.71,81.323 92.673,80.94 92.673,80.556C92.673,77.265 95.381,74.557 98.672,74.556L130.422,74.556C133.283,74.556 135.766,76.602 136.312,79.411L142.9,113.306L165.15,113.306C177.732,113.306 188.324,114.678 196.63,117.383C205.17,120.158 213.03,124.863 219.984,131.367C225.736,136.659 230.484,142.599 234.064,149.024C237.644,155.449 240.234,162.618 241.732,170.326C245.447,189.43 242.429,204.728 232.762,215.792C223.19,226.75 208.148,232.306 188.056,232.306M142.423,142.306L161.736,142.306C174.536,142.306 184.072,144.716 190.336,149.54C196.6,154.364 200.828,162.415 203.024,173.697C205.124,184.529 204.168,192.173 200.154,196.627C196.14,201.081 188.094,203.307 176.034,203.307L154.28,203.307L142.424,142.307M188.057,226.307C206.424,226.307 219.823,221.487 228.245,211.847C236.667,202.207 239.202,188.749 235.842,171.472C234.459,164.355 232.12,157.848 228.827,151.952C225.534,146.056 221.225,140.659 215.905,135.768C209.565,129.835 202.522,125.608 194.772,123.088C187.022,120.563 177.152,119.306 165.152,119.306L137.956,119.306L130.426,80.556L98.676,80.556L127,226.307L188.055,226.307" style="fill:white;fill-rule:nonzero;"/>
                        <path d="M311.583,116.307C310.687,116.307 309.838,116.707 309.269,117.399C308.7,118.091 308.467,118.999 308.639,119.879L321.169,184.369C322.361,190.502 322.067,194.904 320.342,196.764C319.286,197.901 316.114,199.808 306.735,199.808L284.033,199.808L268.278,118.736C268.005,117.331 266.764,116.308 265.333,116.308L233.833,116.308C232.187,116.308 230.833,117.662 230.833,119.308C230.833,119.5 230.851,119.692 230.888,119.88L259.216,265.63C259.489,267.034 260.731,268.057 262.161,268.057L293.661,268.057C295.307,268.057 296.661,266.703 296.661,265.057C296.661,264.865 296.643,264.673 296.606,264.485L289.77,229.307L314.192,229.307C332.797,229.307 345.412,226.027 352.762,219.279C360.262,212.395 362.589,201.389 359.709,186.559L346.529,118.734C346.256,117.329 345.015,116.306 343.584,116.306L311.584,116.306L311.583,116.307Z" style="fill-rule:nonzero;"/>
                        <path d="M293.66,271.057L262.16,271.057C259.299,271.057 256.816,269.011 256.27,266.202L227.942,120.452C227.869,120.075 227.832,119.692 227.832,119.308C227.832,116.016 230.54,113.308 233.832,113.308L265.332,113.308C268.193,113.308 270.676,115.354 271.222,118.163L286.505,196.808L306.735,196.808C316.098,196.808 318.063,194.808 318.142,194.722C318.71,194.112 319.457,191.282 318.224,184.942L305.694,120.452C305.621,120.075 305.584,119.692 305.584,119.308C305.584,116.016 308.292,113.308 311.584,113.308L343.584,113.308C346.445,113.308 348.928,115.354 349.474,118.163L362.654,185.988C365.747,201.908 363.101,213.852 354.794,221.488C346.866,228.768 333.586,232.308 314.194,232.308L293.41,232.308L299.553,263.913C299.626,264.29 299.663,264.674 299.663,265.058C299.663,268.35 296.955,271.058 293.663,271.058C293.663,271.058 293.663,271.058 293.663,271.058M293.663,265.058L286.133,226.308L314.195,226.308C331.852,226.308 344.031,223.226 350.735,217.07C357.439,210.914 359.445,200.93 356.767,187.132L343.587,119.308L311.587,119.308L324.117,183.796C325.543,191.132 325.019,196.136 322.543,198.804C320.067,201.472 314.797,202.808 306.738,202.808L281.56,202.808L265.334,119.308L233.834,119.308L262.162,265.058L293.662,265.058" style="fill:white;fill-rule:nonzero;"/>
                        <path d="M409.55,145.307C421.615,145.307 430.622,147.532 436.32,151.917C441.958,156.257 445.852,163.777 447.894,174.27C449.797,184.076 449.072,190.923 445.739,194.618C442.332,198.392 434.966,200.306 423.846,200.306L404.566,200.306L393.876,145.306L409.549,145.306L409.55,145.307ZM346.488,77.557C345.593,77.557 344.743,77.957 344.174,78.649C343.604,79.34 343.373,80.25 343.543,81.129L371.871,226.879C372.144,228.283 373.386,229.307 374.817,229.306L435.87,229.306C455.06,229.306 469.34,224.106 478.318,213.819C487.343,203.489 490.128,189.049 486.601,170.899C485.163,163.505 482.694,156.639 479.259,150.489C475.819,144.334 471.275,138.639 465.749,133.559C459.133,127.367 451.645,122.877 443.513,120.235C435.51,117.628 425.233,116.305 412.965,116.305L388.24,116.305L381.183,79.983C380.91,78.578 379.668,77.555 378.237,77.555L346.487,77.555L346.488,77.557Z" style="fill-rule:nonzero;"/>
                        <path d="M407.04,197.307L423.848,197.307C437.268,197.307 441.931,194.362 443.515,192.607C446.145,189.693 446.64,183.549 444.95,174.841C443.052,165.091 439.533,158.177 434.492,154.295C429.33,150.321 420.938,148.307 409.552,148.307L397.519,148.307L407.041,197.307L407.04,197.307ZM435.87,232.307L374.816,232.307C371.955,232.307 369.473,230.26 368.927,227.452L340.6,81.7C340.527,81.323 340.49,80.94 340.49,80.556C340.49,77.265 343.198,74.557 346.489,74.556L378.239,74.556C381.1,74.556 383.583,76.602 384.129,79.411L390.716,113.306L412.966,113.306C425.548,113.306 436.14,114.678 444.446,117.383C452.986,120.158 460.846,124.863 467.802,131.369C473.554,136.659 478.29,142.599 481.88,149.024C485.47,155.449 488.05,162.618 489.548,170.326C493.263,189.431 490.245,204.729 480.578,215.793C471.006,226.75 455.965,232.306 435.872,232.306M390.24,142.306L409.552,142.306C422.352,142.306 431.888,144.716 438.152,149.54C444.416,154.364 448.644,162.415 450.84,173.697C452.942,184.529 451.985,192.173 447.97,196.627C443.955,201.081 435.91,203.307 423.85,203.307L402.096,203.307L390.241,142.307M435.873,226.307C454.24,226.307 467.639,221.487 476.061,211.847C484.483,202.207 487.018,188.749 483.658,171.472C482.275,164.355 479.936,157.848 476.643,151.952C473.35,146.056 469.041,140.659 463.721,135.768C457.381,129.835 450.338,125.608 442.588,123.088C434.838,120.563 424.968,119.306 412.968,119.306L385.772,119.306L378.242,80.556L346.492,80.556L374.82,226.306L435.874,226.306" style="fill:white;fill-rule:nonzero;"/>
                    </g>
                </g>
            </g>
        </g>
    </g>
    <defs>
        <radialGradient id="_Radial2" cx="0" cy="0" r="1" gradientUnits="userSpaceOnUse" gradientTransform="matrix(363.058,0,0,-363.058,177.52,256.307)"><stop offset="0" style="stop-color:rgb(174,178,213);stop-opacity:1"/><stop offset="0.3" style="stop-color:rgb(174,178,213);stop-opacity:1"/><stop offset="0.75" style="stop-color:rgb(72,76,137);stop-opacity:1"/><stop offset="1" style="stop-color:rgb(72,76,137);stop-opacity:1"/></radialGradient>
    </defs>
</svg>
