<?xml version="1.0" encoding="UTF-8" standalone="no"?>
<!DOCTYPE svg PUBLIC "-//W3C//DTD SVG 1.1//EN" "http://www.w3.org/Graphics/SVG/1.1/DTD/svg11.dtd">
<svg width="100%" height="100%" viewBox="0 0 23 23" version="1.1" xmlns="http://www.w3.org/2000/svg" xmlns:xlink="http://www.w3.org/1999/xlink" xml:space="preserve" xmlns:serif="http://www.serif.com/" style="fill-rule:evenodd;clip-rule:evenodd;">
    <g transform="matrix(1,0,0,1,-426.094,-207.836)">
        <g transform="matrix(0.0898437,0,0,0.0898437,437.594,219.336)">
            <g transform="matrix(1,0,0,1,-128,-128)">
                <clipPath id="_clip1">
                    <rect x="0" y="0" width="256" height="256"/>
                </clipPath>
                <g clip-path="url(#_clip1)">
                    <path id="B" d="M7.253,128L248.747,128L248.747,213.333C248.747,233.387 233.387,248.747 213.333,248.747L42.667,248.747C22.613,248.747 7.253,233.387 7.253,213.333L7.253,128Z" style="fill-rule:nonzero;"/>
                    <g transform="matrix(1,0,0,1,128,128)">
                        <g id="C">
                            <path id="D" d="M-71.808,-13.525C-75.394,-17.111 -80.263,-19.128 -85.334,-19.128C-95.828,-19.128 -104.463,-10.493 -104.463,0.001C-104.463,10.495 -95.828,19.13 -85.334,19.13C-80.263,19.13 -75.394,17.114 -71.808,13.528L71.808,13.528C75.394,17.114 80.263,19.13 85.334,19.13C95.828,19.13 104.463,10.495 104.463,0.001C104.463,-10.493 95.828,-19.128 85.334,-19.128C80.263,-19.128 75.394,-17.111 71.808,-13.525L-71.808,-13.525Z" style="fill:rgb(255,177,59);fill-rule:nonzero;stroke:black;stroke-width:32.43px;"/>
                            <g>
                                <g id="D1" serif:id="D" transform="matrix(0.707107,0.707107,-0.707107,0.707107,0,0)">
                                    <path d="M-71.808,-13.525C-75.394,-17.111 -80.263,-19.128 -85.334,-19.128C-95.828,-19.128 -104.463,-10.493 -104.463,0.001C-104.463,10.495 -95.828,19.13 -85.334,19.13C-80.263,19.13 -75.394,17.114 -71.808,13.528L71.808,13.528C75.394,17.114 80.263,19.13 85.334,19.13C95.828,19.13 104.463,10.495 104.463,0.001C104.463,-10.493 95.828,-19.128 85.334,-19.128C80.263,-19.128 75.394,-17.111 71.808,-13.525L-71.808,-13.525Z" style="fill:rgb(255,177,59);fill-rule:nonzero;stroke:black;stroke-width:32.43px;"/>
                                </g>
                                <g id="D2" serif:id="D" transform="matrix(-3.82857e-16,1,-1,-3.82857e-16,0,0)">
                                    <path d="M-71.808,-13.525C-75.394,-17.111 -80.263,-19.128 -85.334,-19.128C-95.828,-19.128 -104.463,-10.493 -104.463,0.001C-104.463,10.495 -95.828,19.13 -85.334,19.13C-80.263,19.13 -75.394,17.114 -71.808,13.528L71.808,13.528C75.394,17.114 80.263,19.13 85.334,19.13C95.828,19.13 104.463,10.495 104.463,0.001C104.463,-10.493 95.828,-19.128 85.334,-19.128C80.263,-19.128 75.394,-17.111 71.808,-13.525L-71.808,-13.525Z" style="fill:rgb(255,177,59);fill-rule:nonzero;stroke:black;stroke-width:32.43px;"/>
                                </g>
                                <g id="D3" serif:id="D" transform="matrix(-0.707107,0.707107,-0.707107,-0.707107,0,0)">
                                    <path d="M-71.808,-13.525C-75.394,-17.111 -80.263,-19.128 -85.334,-19.128C-95.828,-19.128 -104.463,-10.493 -104.463,0.001C-104.463,10.495 -95.828,19.13 -85.334,19.13C-80.263,19.13 -75.394,17.114 -71.808,13.528L71.808,13.528C75.394,17.114 80.263,19.13 85.334,19.13C95.828,19.13 104.463,10.495 104.463,0.001C104.463,-10.493 95.828,-19.128 85.334,-19.128C80.263,-19.128 75.394,-17.111 71.808,-13.525L-71.808,-13.525Z" style="fill:rgb(255,177,59);fill-rule:nonzero;stroke:black;stroke-width:32.43px;"/>
                                </g>
                            </g>
                        </g>
                    </g>
                    <g id="C1" serif:id="C" transform="matrix(1,0,0,1,128,128)">
                        <path id="D4" serif:id="D" d="M-71.808,-13.525C-75.394,-17.111 -80.263,-19.128 -85.334,-19.128C-95.828,-19.128 -104.463,-10.493 -104.463,0.001C-104.463,10.495 -95.828,19.13 -85.334,19.13C-80.263,19.13 -75.394,17.114 -71.808,13.528L71.808,13.528C75.394,17.114 80.263,19.13 85.334,19.13C95.828,19.13 104.463,10.495 104.463,0.001C104.463,-10.493 95.828,-19.128 85.334,-19.128C80.263,-19.128 75.394,-17.111 71.808,-13.525L-71.808,-13.525Z" style="fill:rgb(255,177,59);fill-rule:nonzero;"/>
                        <g>
                            <g id="D5" serif:id="D" transform="matrix(0.707107,0.707107,-0.707107,0.707107,0,0)">
                                <path d="M-71.808,-13.525C-75.394,-17.111 -80.263,-19.128 -85.334,-19.128C-95.828,-19.128 -104.463,-10.493 -104.463,0.001C-104.463,10.495 -95.828,19.13 -85.334,19.13C-80.263,19.13 -75.394,17.114 -71.808,13.528L71.808,13.528C75.394,17.114 80.263,19.13 85.334,19.13C95.828,19.13 104.463,10.495 104.463,0.001C104.463,-10.493 95.828,-19.128 85.334,-19.128C80.263,-19.128 75.394,-17.111 71.808,-13.525L-71.808,-13.525Z" style="fill:rgb(255,177,59);fill-rule:nonzero;"/>
                            </g>
                            <g id="D6" serif:id="D" transform="matrix(-3.82857e-16,1,-1,-3.82857e-16,0,0)">
                                <path d="M-71.808,-13.525C-75.394,-17.111 -80.263,-19.128 -85.334,-19.128C-95.828,-19.128 -104.463,-10.493 -104.463,0.001C-104.463,10.495 -95.828,19.13 -85.334,19.13C-80.263,19.13 -75.394,17.114 -71.808,13.528L71.808,13.528C75.394,17.114 80.263,19.13 85.334,19.13C95.828,19.13 104.463,10.495 104.463,0.001C104.463,-10.493 95.828,-19.128 85.334,-19.128C80.263,-19.128 75.394,-17.111 71.808,-13.525L-71.808,-13.525Z" style="fill:rgb(255,177,59);fill-rule:nonzero;"/>
                            </g>
                            <g id="D7" serif:id="D" transform="matrix(-0.707107,0.707107,-0.707107,-0.707107,0,0)">
                                <path d="M-71.808,-13.525C-75.394,-17.111 -80.263,-19.128 -85.334,-19.128C-95.828,-19.128 -104.463,-10.493 -104.463,0.001C-104.463,10.495 -95.828,19.13 -85.334,19.13C-80.263,19.13 -75.394,17.114 -71.808,13.528L71.808,13.528C75.394,17.114 80.263,19.13 85.334,19.13C95.828,19.13 104.463,10.495 104.463,0.001C104.463,-10.493 95.828,-19.128 85.334,-19.128C80.263,-19.128 75.394,-17.111 71.808,-13.525L-71.808,-13.525Z" style="fill:rgb(255,177,59);fill-rule:nonzero;"/>
                            </g>
                        </g>
                    </g>
                    <path id="B1" serif:id="B" d="M7.253,128L248.747,128L248.747,213.333C248.747,233.387 233.387,248.747 213.333,248.747L42.667,248.747C22.613,248.747 7.253,233.387 7.253,213.333L7.253,128Z" style="fill-opacity:0.85;fill-rule:nonzero;"/>
                    <path id="A" d="M43.489,188.278C37.825,182.615 34.319,174.795 34.319,166.158C34.319,148.876 48.336,134.868 65.609,134.868C82.891,134.868 96.908,148.876 96.908,166.158L78.578,166.158C78.578,159 72.769,153.199 65.609,153.199C58.45,153.199 52.651,159 52.651,166.158C52.645,169.59 54.01,172.886 56.439,175.311L56.448,175.311C58.795,177.666 60.749,178.347 65.609,179.118C74.255,180.017 82.075,182.624 87.738,188.286C93.401,193.949 96.908,201.771 96.908,210.408C96.908,227.69 82.891,241.707 65.609,241.707C48.336,241.707 34.319,227.69 34.319,210.408L52.651,210.408C52.651,217.566 58.452,223.375 65.609,223.375C72.767,223.375 78.578,217.566 78.578,210.408C78.582,206.976 77.217,203.68 74.788,201.255L74.779,201.255C72.433,198.909 69.065,198.1 65.609,197.456L65.609,197.448C57.23,196.163 49.152,193.942 43.489,188.278ZM159.491,134.859L137.356,241.698L119.026,241.698L96.908,134.859L115.238,134.859L128.208,197.431L141.162,134.859L159.491,134.859ZM190.792,179.118L222.082,179.118L222.09,210.408C222.09,227.692 208.073,241.708 190.792,241.708C173.51,241.708 159.502,227.692 159.502,210.408L159.493,166.159C159.493,148.878 173.508,134.869 190.792,134.869C208.065,134.869 222.082,148.878 222.082,166.159L203.75,166.159C203.75,159.008 197.941,153.199 190.792,153.199C183.682,153.2 177.832,159.05 177.831,166.159L177.831,210.408C177.832,217.518 183.682,223.368 190.792,223.369C197.896,223.362 203.74,217.521 203.75,210.417L203.75,197.458L190.792,197.458L190.792,179.118Z" style="fill:white;fill-rule:nonzero;"/>
                </g>
            </g>
        </g>
    </g>
</svg>
