<svg class="escape" width="16px" height="16px" viewBox="0 0 9 6" version="1.1" xmlns="http://www.w3.org/2000/svg" xmlns:xlink="http://www.w3.org/1999/xlink" xml:space="preserve" xmlns:serif="http://www.serif.com/" style="fill-rule:evenodd;clip-rule:evenodd;stroke-linejoin:round;stroke-miterlimit:2;">
    <g transform="matrix(1,0,0,1,-24.8255,-16.9784)">
        <g transform="matrix(1.33333,0,0,1,0,0)">
            <g transform="matrix(0.542434,0,0,0.723245,6.01942,5.43054)">
                <path d="M34.772,16.769C34.772,16.326 34.412,15.967 33.969,15.967L24.031,15.967C23.588,15.967 23.228,16.326 23.228,16.769L23.228,22.475C23.228,22.918 23.588,23.278 24.031,23.278L33.969,23.278C34.412,23.278 34.772,22.918 34.772,22.475L34.772,16.769ZM28.968,20.812C28.731,20.812 28.543,20.753 28.403,20.636C28.264,20.519 28.193,20.359 28.191,20.158L28.588,20.158C28.588,20.254 28.622,20.328 28.691,20.382C28.759,20.436 28.853,20.463 28.971,20.463C29.086,20.463 29.175,20.437 29.24,20.384C29.304,20.331 29.336,20.258 29.336,20.165C29.336,20.087 29.313,20.019 29.267,19.962C29.22,19.905 29.155,19.864 29.073,19.841L28.806,19.768C28.625,19.722 28.484,19.638 28.386,19.517C28.288,19.397 28.238,19.251 28.238,19.08C28.238,18.948 28.268,18.834 28.327,18.737C28.387,18.64 28.471,18.565 28.58,18.512C28.689,18.459 28.817,18.432 28.965,18.432C29.189,18.432 29.367,18.49 29.498,18.605C29.629,18.721 29.696,18.876 29.698,19.07L29.301,19.07C29.301,18.979 29.272,18.908 29.213,18.856C29.153,18.804 29.07,18.778 28.962,18.778C28.856,18.778 28.775,18.803 28.719,18.853C28.663,18.902 28.635,18.971 28.635,19.057C28.635,19.138 28.657,19.206 28.7,19.262C28.744,19.318 28.806,19.358 28.889,19.381L29.165,19.457C29.349,19.504 29.49,19.587 29.587,19.706C29.684,19.826 29.733,19.973 29.733,20.149C29.733,20.28 29.701,20.396 29.638,20.496C29.574,20.597 29.485,20.675 29.37,20.73C29.254,20.785 29.121,20.812 28.968,20.812ZM30.796,20.812C30.646,20.812 30.516,20.784 30.406,20.728C30.296,20.672 30.21,20.593 30.15,20.49C30.09,20.387 30.06,20.266 30.06,20.127L30.06,19.118C30.06,18.978 30.09,18.857 30.15,18.754C30.21,18.652 30.296,18.572 30.406,18.516C30.516,18.46 30.646,18.432 30.796,18.432C30.944,18.432 31.073,18.46 31.183,18.516C31.293,18.572 31.379,18.652 31.44,18.754C31.501,18.857 31.532,18.978 31.532,19.118L31.132,19.118C31.132,19.01 31.103,18.927 31.045,18.869C30.987,18.81 30.904,18.781 30.796,18.781C30.688,18.781 30.604,18.81 30.545,18.867C30.486,18.924 30.456,19.007 30.456,19.115L30.456,20.127C30.456,20.235 30.486,20.318 30.545,20.376C30.604,20.434 30.688,20.463 30.796,20.463C30.904,20.463 30.987,20.434 31.045,20.376C31.103,20.318 31.132,20.235 31.132,20.127L31.532,20.127C31.532,20.266 31.501,20.387 31.44,20.49C31.379,20.593 31.293,20.672 31.183,20.728C31.073,20.784 30.944,20.812 30.796,20.812ZM26.468,20.78L26.468,18.464L27.858,18.464L27.858,18.81L26.858,18.81L26.858,19.413L27.747,19.413L27.747,19.755L26.858,19.755L26.858,20.434L27.858,20.434L27.858,20.78L26.468,20.78Z" />
            </g>
        </g>
    </g>
</svg>
