<?xml version="1.0" encoding="UTF-8" standalone="no"?>
<!DOCTYPE svg PUBLIC "-//W3C//DTD SVG 1.1//EN" "http://www.w3.org/Graphics/SVG/1.1/DTD/svg11.dtd">
<svg width="100%" height="100%" viewBox="0 0 854 854" version="1.1" xmlns="http://www.w3.org/2000/svg" xmlns:xlink="http://www.w3.org/1999/xlink" xml:space="preserve" xmlns:serif="http://www.serif.com/" style="fill-rule:evenodd;clip-rule:evenodd;stroke-linejoin:round;stroke-miterlimit:2;">
    <g transform="matrix(1,0,0,1,-73,-73)">
        <g>
            <path d="M927,185.996C927,123.632 876.368,73 814.004,73L185.996,73C123.632,73 73,123.632 73,185.996L73,814.004C73,876.368 123.632,927 185.996,927L814.004,927C876.368,927 927,876.368 927,814.004L927,185.996ZM376.565,845C334.463,845 301.056,833.559 276.343,810.677C251.631,787.796 239.275,756.951 239.275,718.144L321.649,718.144C321.649,734.985 326.592,748.439 336.476,758.507C346.361,768.575 359.724,773.609 376.565,773.609C393.406,773.609 406.769,768.758 416.654,759.056C426.539,749.354 431.481,736.083 431.481,719.242L431.481,514.954L318.903,514.954L318.903,438.071L513.856,438.071L513.856,719.242C513.856,758.049 501.591,788.711 477.062,811.227C452.533,833.742 419.034,845 376.565,845ZM706.062,844.451C677.872,844.451 653.343,839.691 632.474,830.173C611.606,820.654 595.498,807.291 584.148,790.084C572.799,772.877 567.124,752.558 567.124,729.127L649.498,729.127C649.498,742.673 654.716,753.382 665.15,761.253C675.584,769.124 689.77,773.06 707.71,773.06C724.917,773.06 738.371,769.216 748.073,761.527C757.775,753.839 762.626,743.222 762.626,729.676C762.626,717.961 758.965,707.893 751.643,699.472C744.32,691.052 734.069,685.377 720.889,682.448L680.252,673.112C646.204,665.058 619.752,650.139 600.898,628.356C582.043,606.572 572.616,579.938 572.616,548.453C572.616,513.306 584.514,485.208 608.311,464.156C632.108,443.105 664.326,432.58 704.964,432.58C745.968,432.58 778.46,442.739 802.44,463.058C826.42,483.377 838.41,510.744 838.41,545.158L756.036,545.158C756.036,532.344 751.551,522.276 742.581,514.954C733.612,507.632 720.706,503.971 703.865,503.971C688.123,503.971 676.041,507.54 667.621,514.679C659.2,521.818 654.99,531.978 654.99,545.158C654.99,556.873 658.377,566.85 665.15,575.087C671.923,583.325 681.533,588.908 693.981,591.837L736.815,601.721C772.328,609.776 799.237,624.329 817.542,645.38C835.847,666.431 845,693.248 845,725.832C845,749.263 839.234,769.948 827.701,787.887C816.169,805.826 800.06,819.739 779.375,829.623C758.69,839.508 734.252,844.451 706.062,844.451Z" style="fill:rgb(247,223,30);"/>
        </g>
    </g>
</svg>
