<?xml version="1.0" encoding="UTF-8" standalone="no"?>
<!DOCTYPE svg PUBLIC "-//W3C//DTD SVG 1.1//EN" "http://www.w3.org/Graphics/SVG/1.1/DTD/svg11.dtd">
<svg width="100%" height="100%" viewBox="0 0 854 854" version="1.1" xmlns="http://www.w3.org/2000/svg" xmlns:xlink="http://www.w3.org/1999/xlink" xml:space="preserve" xmlns:serif="http://www.serif.com/" style="fill-rule:evenodd;clip-rule:evenodd;stroke-linejoin:round;stroke-miterlimit:2;">
    <g transform="matrix(1,0,0,1,-1106.93,-73)">
        <g transform="matrix(1,0,0,1,1033.93,0)">
            <g transform="matrix(1,0,0,1,-1033.93,1.77636e-15)">
                <path d="M1960.93,185.996C1960.93,123.632 1910.3,73 1847.93,73L1219.92,73C1157.56,73 1106.93,123.632 1106.93,185.996L1106.93,814.004C1106.93,876.368 1157.56,927 1219.92,927L1847.93,927C1910.3,927 1960.93,876.368 1960.93,814.004L1960.93,185.996ZM1739.99,844.451C1711.8,844.451 1687.27,839.691 1666.4,830.173C1645.54,820.654 1629.43,807.291 1618.08,790.084C1606.73,772.877 1601.05,752.558 1601.05,729.127L1683.43,729.127C1683.43,742.673 1688.64,753.382 1699.08,761.253C1709.51,769.124 1723.7,773.06 1741.64,773.06C1758.85,773.06 1772.3,769.216 1782,761.527C1791.7,753.839 1796.55,743.222 1796.55,729.676C1796.55,717.961 1792.89,707.893 1785.57,699.472C1778.25,691.052 1768,685.377 1754.82,682.448L1714.18,673.112C1680.13,665.058 1653.68,650.139 1634.83,628.356C1615.97,606.572 1606.54,579.938 1606.54,548.453C1606.54,513.306 1618.44,485.208 1642.24,464.156C1666.04,443.105 1698.25,432.58 1738.89,432.58C1779.9,432.58 1812.39,442.739 1836.37,463.058C1860.35,483.377 1872.34,510.744 1872.34,545.158L1789.96,545.158C1789.96,532.344 1785.48,522.276 1776.51,514.954C1767.54,507.632 1754.63,503.971 1737.79,503.971C1722.05,503.971 1709.97,507.54 1701.55,514.679C1693.13,521.818 1688.92,531.978 1688.92,545.158C1688.92,556.873 1692.31,566.85 1699.08,575.087C1705.85,583.325 1715.46,588.908 1727.91,591.837L1770.74,601.721C1806.26,609.776 1833.16,624.329 1851.47,645.38C1869.78,666.431 1878.93,693.248 1878.93,725.832C1878.93,749.263 1873.16,769.948 1861.63,787.887C1850.1,805.826 1833.99,819.739 1813.3,829.623C1792.62,839.508 1768.18,844.451 1739.99,844.451ZM1385.78,838.959L1385.78,514.954L1284.19,514.954L1284.19,438.071L1569.75,438.071L1569.75,514.954L1468.15,514.954L1468.15,838.959L1385.78,838.959Z" style="fill:rgb(60,121,173);"/>
            </g>
        </g>
    </g>
</svg>
